<?xml version="1.0" standalone="no"?>
<!DOCTYPE svg PUBLIC "-//W3C//DTD SVG 20010904//EN"
 "http://www.w3.org/TR/2001/REC-SVG-20010904/DTD/svg10.dtd">
<svg version="1.0" xmlns="http://www.w3.org/2000/svg"
 width="1080.000000pt" height="1080.000000pt" viewBox="0 0 1080.000000 1080.000000"
 preserveAspectRatio="xMidYMid meet">
<metadata>
Created by potrace 1.14, written by Peter Selinger 2001-2017
</metadata>
<g transform="translate(0.000000,1080.000000) scale(0.100000,-0.100000)"
fill="#000000" stroke="none">
<path d="M1475 10785 c-133 -21 -147 -24 -225 -45 -422 -117 -787 -397 -1012
-775 -50 -84 -119 -226 -133 -275 -1 -3 -13 -42 -28 -86 -28 -89 -53 -201 -66
-309 -6 -40 -10 -1688 -10 -3900 0 -3707 1 -3834 19 -3950 50 -320 175 -593
383 -842 261 -311 615 -511 1032 -582 107 -19 227 -19 3955 -20 3148 0 3860 3
3930 14 47 7 101 15 120 18 91 15 291 84 407 140 278 134 541 375 706 645 119
196 210 457 235 677 9 80 9 7744 0 7815 -4 30 -12 80 -18 110 -6 30 -13 66
-16 80 -12 60 -88 266 -130 352 -132 265 -337 498 -584 665 -158 106 -442 225
-600 249 -19 3 -55 11 -80 17 -70 17 -7777 20 -7885 2z"/>
</g>
</svg>
